# xmcd
#
# Track frame offsets: 
#        150
#        18107
#        33259
#        47608
#        60306
#        71350
#        83338
#        96606
#        108414
#        119814
#        132646
#        147195
#        159837
#        172278
#        184504
#        196826
#        206794
#        218601
#        230442
#        241760
#
# Disc length: 3375 seconds
#
# Revision: 0
# Processed by: cddbd v1.5.2PL0 Copyright (c) Steve Scherf et al.
# Submitted via: ExactAudioCopyFreeDBPlugin 1.0
#
DISCID=100d2d14
DTITLE=Champion Jack Dupree - The Essential Recordings CD1
DYEAR=1900
DGENRE=
TTITLE0=Stack-O- Lee
TTITLE1=Frankie And Johnny
TTITLE2=Junker's Blues
TTITLE3=Going Down Slow
TTITLE4=Hard Feeling
TTITLE5=How Long, How Long Blues
TTITLE6=Mean Old Frisco
TTITLE7=Bad Whiskey And Wild Women
TTITLE8=Bus Station Blues
TTITLE9=Highway Blues
TTITLE10=Number Nine Blues
TTITLE11=The Blues Got Me Rockin'
TTITLE12=Tongue-Tied Blues
TTITLE13=Please Tell Me Baby
TTITLE14=Walkin' Upside Your Head
TTITLE15=Let The Doorbell Ring
TTITLE16=Blues For Everybody
TTITLE17=She Cooks Me Cabbage
TTITLE18=Mail Order Woman
TTITLE19=When I Got Married
EXTD=
EXTT0=
EXTT1=
EXTT2=
EXTT3=
EXTT4=
EXTT5=
EXTT6=
EXTT7=
EXTT8=
EXTT9=
EXTT10=
EXTT11=
EXTT12=
EXTT13=
EXTT14=
EXTT15=
EXTT16=
EXTT17=
EXTT18=
EXTT19=
PLAYORDER=
